<svg viewBox="0 0 200 200" xmlns="http://www.w3.org/2000/svg" fill="none">
  <g stroke="#2b2622" stroke-width="3.4" stroke-linecap="round" stroke-linejoin="round">
    <path d="M100 24v14"/>
    <path d="M70 40h60l-9 12H79z" fill="#c0574c"/>
    <path d="M70 152h60l9 13H61z" fill="#c0574c"/>
    <path d="M72 56c-8 6-12 22-12 38s4 32 12 38M128 56c8 6 12 22 12 38s-4 32-12 38" fill="#e7c14b"/>
    <path d="M100 56v76" opacity="0.5"/>
    <path d="M83 58c-7 7-10 21-10 36s3 29 10 36M117 58c7 7 10 21 10 36s-3 29-10 36" opacity="0.55"/>
    <path d="M70 170v6M130 170v6"/>
  </g>
</svg>
