<svg viewBox="0 0 200 200" xmlns="http://www.w3.org/2000/svg" fill="none">
  <g stroke="#2b2622" stroke-width="3.4" stroke-linecap="round" stroke-linejoin="round">
    <path d="M40 156c22-12 40-30 52-54" stroke-width="4"/>
    <path d="M58 130c8-3 14-2 20 2M74 108c8-1 14 2 18 8" stroke-width="3" opacity="0.7"/>
    <g fill="#d98a93">
      <path d="M100 96c0-14-4-22 0-26 4 4 0 12 0 26z"/>
      <path d="M100 96c12-7 21-7 26-3-4 5-12 4-26 3z"/>
      <path d="M100 96c12 7 18 14 17 20-6-1-12-8-17-20z"/>
      <path d="M100 96c0 14-4 22-8 24-2-6 2-14 8-24z"/>
      <path d="M100 96c-12 7-21 7-24 2 4-5 12-4 24-2z"/>
    </g>
    <circle cx="100" cy="96" r="5.5" fill="#c0574c" stroke="none"/>
    <circle cx="74" cy="138" r="6" fill="#d98a93"/>
    <path d="M74 132v-12" stroke-width="3"/>
  </g>
</svg>
