<svg viewBox="0 0 200 200" xmlns="http://www.w3.org/2000/svg" fill="none">
  <g stroke="#2b2622" stroke-width="3.4" stroke-linecap="round" stroke-linejoin="round">
    <path d="M56 118c0 23 17 40 44 40s44-17 44-40c0-15-8-26-15-32" fill="#e6dcc6"/>
    <path d="M70 86c0-11 13-18 30-18s30 7 30 18" fill="#e6dcc6"/>
    <path d="M100 62v6"/>
    <circle cx="100" cy="57" r="4.5" fill="#c0574c" stroke="none"/>
    <path d="M144 92c12-1 22-8 26-20"/>
    <path d="M170 70l-5 9"/>
    <path d="M56 92c-17 2-25 14-23 27 1 8 6 15 13 17"/>
  </g>
</svg>
